<?xml version="1.0" encoding="UTF-8"?>
<svg id="Layer_1" data-name="Layer 1" xmlns="http://www.w3.org/2000/svg" viewBox="0 0 764.47 685.36">
  <defs>
    <style>
      .cls-1 {
        fill: blue;
      }

      .cls-2 {
        fill: red;
      }

      .cls-3 {
        fill: #add8e6;
      }
    </style>
  </defs>
  <path class="cls-2" d="m157.47,229.56c5.35,22.91,10.75,45.8,16.21,68.68s10.99,45.78,16.56,68.65,11.15,45.54,16.8,68.29,11.41,45.77,17.18,68.64c5.77,22.9,11.59,45.78,17.44,68.66.72,2.83,1.45,5.67,2.18,8.5.48,1.87,3.37,1.08,2.89-.8-5.86-22.88-11.69-45.77-17.47-68.66-5.78-22.87-11.52-45.75-17.21-68.64-5.66-22.75-11.27-45.52-16.84-68.29s-11.12-45.75-16.6-68.65-10.9-45.77-16.26-68.68c-.66-2.83-1.33-5.67-1.99-8.5-.44-1.88-3.33-1.08-2.89.8h0Z"/>
  <path class="cls-2" d="m156.77,228.87c24.24-6.52,48.97-11.03,73.87-14.14,24.85-3.1,49.86-4.87,74.87-6.03,25.59-1.19,51.22-1.83,76.83-2.4,26.09-.58,52.19-.98,78.28-1.19s52.19-.24,78.29-.09c3.26.02,6.52.04,9.79.07,1.93.01,1.93-2.99,0-3-26.23-.2-52.46-.22-78.68-.05s-52.45.53-78.68,1.07c-25.73.53-51.47,1.15-77.19,2.21s-50.3,2.6-75.32,5.43-49.53,6.86-73.78,12.87c-3.03.75-6.06,1.54-9.08,2.35-1.86.5-1.07,3.4.8,2.89h0Z"/>
  <path class="cls-2" d="m547.27,203.8c-5.27,21.35-9.65,42.9-13.51,64.54-3.86,21.64-7.22,43.37-10.47,65.12-3.33,22.24-6.64,44.48-9.94,66.72-3.29,22.13-6.56,44.26-9.85,66.39-3.27,21.96-6.82,43.88-9.78,65.88-.36,2.71-.72,5.42-1.06,8.14-.24,1.91,2.76,1.89,3,0,2.82-22.16,6.35-44.21,9.69-66.3,3.34-22.11,6.58-44.23,9.86-66.35,6.48-43.69,12.55-87.49,20.08-131.02,4.2-24.26,8.98-48.43,14.88-72.34.46-1.87-2.43-2.67-2.89-.8h0Z"/>
  <path class="cls-2" d="m153.83,174.44c-5.8-10.49-13.21-24.95-6.81-36.78,2.91-5.38,8.17-8.77,13.6-11.25,6.05-2.76,12.53-4.74,18.91-6.58,13.92-4.01,28.26-6.58,42.71-7.61,7.03-.5,14.08-.66,21.12-.45,3.59.11,7.17.3,10.75.59,3.31.27,6.84.42,9.91,1.82,5.97,2.72,7.17,10.02,6.05,15.87-1.42,7.4-5.92,13.82-8.02,21.02-.35,1.2,1.1,2.45,2.2,1.69,19.55-13.39,43.91-19.17,67.39-15.75l-.66-2.51c-5.73,5.03,0,13.16,4.19,17.06l.3-2.36c-3.33,1.92-7.25.03-9.34-2.86-2.45-3.38-1.73-7.63.64-10.86,6.21-8.48,17.94-7.11,27.04-5.9,1.53.2,1.96-2.11.76-2.8-9.51-5.39-9.96-19.72-1.06-25.84,5.33-3.66,12.27-5.01,18.54-6.03,7.58-1.22,15.3-1.35,22.93-.57.6.06,1.33-.51,1.45-1.1,1.75-9.31,13.3-15.02,21.7-10.43,1.19.65,2.48-.42,2.2-1.69-1.81-8.4-2.89-21.32,5.65-26.6,5.09-3.15,11.86-2.24,17.2-.18,5,1.93,9.41,5.33,12.78,9.48,7.36,9.08,8.6,21.4,4.73,32.24-1.01,2.83-2.39,5.53-4.04,8.04s-3.71,4.51-5.44,6.88c-3.41,4.69-2.06,9.23.91,13.71,1.55,2.34,3.28,4.65,3.66,7.51.35,2.63-.31,5.33-1.56,7.65-2.56,4.74-7.47,8.04-12.96,7.32v3c5.69.69,10.56,7.5,7.88,13.01-2.24,4.59-9.2,6.33-13.07,2.84l.39,1.46c4.14-10.45,15.08-15.06,25.36-17.27,5.46-1.17,11.02-1.76,16.59-2.09,4.93-.3,12.14-.53,14.48,4.85l2.59-1.51c-2.64-5.37-1.68-11.61,1.27-16.64,3.24-5.53,8.51-9.15,14.72-10.6,7.24-1.69,14.91-.45,21.81,2.08,6.01,2.2,12.68,5.61,15.8,11.49,2.74,5.15,1.03,14.31-5.95,14.86-1.56.12-1.95,1.9-.76,2.8,2.73,2.06.77,7.36-2.51,7.46l1.06,2.56c4.05-4.95,9.29-9.39,15.76-10.57,5.64-1.02,12.41,1.16,15.27,6.4,3.2,5.86.16,12.87-3.98,17.38-4.69,5.11-11.34,7.85-17.41,10.94s-13.64,7.03-14.73,14.37c-.28,1.89,2.61,2.7,2.89.8,1.16-7.83,11.15-11.47,17.33-14.56,6.53-3.27,13.01-6.94,17-13.29,3.35-5.32,4.64-12.34,1.04-17.89-3.32-5.13-9.75-7.74-15.74-7.35-7.96.51-14.68,5.69-19.56,11.66-.77.94-.34,2.6,1.06,2.56,6.47-.2,9.07-9.23,4.02-13.05l-.76,2.8c6.57-.52,10.61-7.03,10.31-13.26-.37-7.52-6.82-12.99-13.03-16.22-14.07-7.32-34.35-9.27-44.83,4.98-4.63,6.3-6.23,14.66-2.7,21.83.87,1.76,3.34.22,2.59-1.51-3.92-9.03-18.04-6.5-25.67-5.57-9.36,1.14-19.31,3.23-27.06,8.94-4.17,3.07-7.27,7.04-9.18,11.85-.18.46.03,1.13.39,1.46,5.43,4.9,14.98,2.77,17.99-3.9,3.45-7.61-2.97-16.13-10.68-17.07-1.92-.23-1.88,2.75,0,3,10.19,1.33,19.33-9.49,17.32-19.34-.57-2.77-2.15-5.08-3.7-7.4-1.85-2.78-3.86-5.91-2.16-9.26,1.46-2.87,4.1-5.1,5.94-7.73s3.27-5.4,4.44-8.34c4.63-11.68,3.49-25.29-4.22-35.39-6.9-9.03-20.3-16.44-31.79-12.07-12.34,4.68-11.95,20.6-9.65,31.27l2.2-1.69c-9.98-5.45-23.99.95-26.11,12.23l1.45-1.1c-16.58-1.69-56.56.26-50.37,26.47,1.14,4.82,4.11,9.1,8.44,11.56l.76-2.8c-10.97-1.46-26.11-2.1-31.23,10.29-1.83,4.42-1.03,9.24,2.35,12.67,3.17,3.21,8.01,4.59,12.07,2.25.81-.47,1.01-1.7.3-2.36-2.91-2.71-8.42-9.1-4.19-12.82.79-.69.45-2.35-.66-2.51-24.27-3.54-49.44,2.17-69.7,16.05l2.2,1.69c2.07-7.11,6.48-13.44,7.97-20.73,1.07-5.22.7-11.23-2.59-15.63-4-5.35-10.87-5.73-16.99-6.2-7.95-.62-15.94-.77-23.91-.47-15.67.59-31.29,2.92-46.44,6.94-7.23,1.92-14.47,4.13-21.39,6.99-5.69,2.35-11.32,5.42-15.16,10.37-10.1,13.05-2.07,30.33,4.83,42.82.93,1.69,3.53.18,2.59-1.51h0Z"/>
  <path class="cls-2" d="m169.12,209.76c-9.89-3.61-19.43-9.53-26.58-17.33-1.35-1.48-3.14-3.89-1.74-5.9.93-1.33,2.78-1.81,4.25-2.24,3.66-1.07,7.65-2,9.39-5.8,1.86-4.05.75-9.2-3.06-11.69-1.62-1.06-3.13,1.54-1.51,2.59,2.97,1.94,3.3,6.82.85,9.31-1.29,1.31-3.26,1.79-4.98,2.28s-3.7.96-5.31,1.94-2.78,2.5-3.06,4.39c-.39,2.65,1.09,5.02,2.77,6.93,3.46,3.94,7.78,7.33,12.11,10.26,4.99,3.37,10.4,6.09,16.06,8.15,1.82.66,2.6-2.23.8-2.89h0Z"/>
  <path class="cls-2" d="m500.95,543.53c28.92.28,57.87.34,86.72,2.51,8.19.62,16.36,1.41,24.51,2.41,1.91.24,1.89-2.77,0-3-28.7-3.53-57.62-4.34-86.51-4.69-8.24-.1-16.48-.16-24.73-.24-1.93-.02-1.93,2.98,0,3h0Z"/>
  <path class="cls-2" d="m246.37,581.89c28.38-11.9,58.4-19.24,88.66-24.45,31.62-5.45,63.57-8.9,95.57-11.18,17.93-1.27,35.88-2.1,53.85-2.5,1.93-.04,1.93-3.04,0-3-32.26.71-64.5,2.82-96.58,6.32-31.23,3.41-62.51,7.98-93,15.69-16.79,4.24-33.32,9.53-49.29,16.22-.75.32-1.27.99-1.05,1.85.19.71,1.1,1.36,1.85,1.05h0Z"/>
  <path class="cls-2" d="m232.2,588.35c4.04-1.98,8.14-3.86,12.27-5.64.74-.32.91-1.41.54-2.05-.45-.77-1.31-.86-2.05-.54-4.14,1.78-8.23,3.66-12.27,5.64-.73.36-.93,1.39-.54,2.05.43.74,1.32.9,2.05.54h0Z"/>
  <path class="cls-1" d="m.03,17.03c13.79,78.19,27.18,156.44,40.15,234.77,12.91,77.93,25.41,155.93,37.5,233.99,6.84,44.16,13.55,88.33,20.13,132.53.28,1.9,3.17,1.09,2.89-.8-11.69-78.53-23.79-156.99-36.3-235.39-12.45-78.01-25.31-155.95-38.57-233.82C18.32,104.26,10.68,60.23,2.92,16.23c-.33-1.9-3.23-1.09-2.89.8H.03Z"/>
  <path class="cls-1" d="m16.35,13.86C106.04,8.4,195.87,5.37,285.72,3.97s178.94-1.16,268.41-.14c50.2.58,100.4,1.41,150.6,2.34,1.93.04,1.93-2.96,0-3C614.81,1.5,524.89.17,434.97.02c-89.45-.15-178.9.85-268.3,3.83-50.14,1.67-100.25,3.97-150.33,7.02-1.92.12-1.93,3.12,0,3h0Z"/>
  <path class="cls-1" d="m702.71,10.06c2.22,84.37,4.87,168.73,7.96,253.07,3.07,83.91,6.57,167.81,10.49,251.68,2.21,47.31,4.56,94.62,7.05,141.92.1,1.92,3.1,1.93,3,0-4.43-84.28-8.43-168.59-11.99-252.91-3.55-83.89-6.67-167.8-9.36-251.73-1.52-47.34-2.9-94.69-4.15-142.04-.05-1.93-3.05-1.93-3,0h0Z"/>
  <path class="cls-1" d="m76.54,682.81c87.78,2.13,175.59,2.93,263.39,2.37,87.8-.56,175.59-2.46,263.34-5.71,49.24-1.82,98.47-4.07,147.68-6.74,1.92-.1,1.93-3.1,0-3-87.67,4.75-175.42,8.17-263.2,10.24-87.78,2.07-175.59,2.79-263.39,2.16-49.28-.35-98.55-1.13-147.81-2.33-1.93-.05-1.93,2.95,0,3h0Z"/>
  <path class="cls-2" d="m198.43,272.67c4.18,18.79,8.32,37.58,12.42,56.38s8.12,37.43,12.11,56.16c4.02,18.82,7.99,37.65,11.93,56.49,3.91,18.75,7.79,37.5,11.62,56.26s7.66,37.72,11.43,56.59c.47,2.35.94,4.69,1.4,7.04.38,1.89,3.27,1.09,2.89-.8-3.76-18.87-7.56-37.74-11.4-56.6s-7.69-37.52-11.59-56.27-7.89-37.67-11.9-56.5-8.01-37.45-12.08-56.16c-4.09-18.81-8.22-37.6-12.39-56.39-.52-2.34-1.04-4.67-1.56-7.01-.42-1.88-3.31-1.09-2.89.8h0Z"/>
  <path class="cls-2" d="m221.51,287.17c3.97,16.72,7.83,33.47,11.58,50.25,3.75,16.77,7.4,33.57,10.94,50.39s6.94,33.5,10.25,50.28c3.33,16.86,6.54,33.75,9.65,50.66s6.11,33.83,9,50.77c.36,2.1.71,4.19,1.07,6.29.32,1.9,3.21,1.09,2.89-.8-2.87-16.95-5.84-33.88-8.92-50.79-3.08-16.91-6.27-33.8-9.57-50.67-3.28-16.79-6.67-33.55-10.17-50.29-3.51-16.83-7.13-33.63-10.86-50.41-3.73-16.78-7.56-33.54-11.51-50.27-.49-2.07-.98-4.14-1.47-6.21-.45-1.88-3.34-1.08-2.89.8h0Z"/>
  <path class="cls-2" d="m169.79,254.93c21.39-8.36,44.07-12.67,66.86-14.95s46.28-2.72,69.43-3.38c24.87-.71,49.73-1.39,74.61-1.86,24.74-.47,49.49-.74,74.24-.63s49.73.6,74.57,1.64c3.06.13,6.12.27,9.18.41,1.93.09,1.93-2.91,0-3-24.84-1.18-49.7-1.79-74.56-1.99-24.99-.21-49.99,0-74.97.42-24.87.43-49.74,1.08-74.61,1.78-23.49.66-47.03,1-70.45,2.94s-45.52,5.41-67.17,12.82c-2.66.91-5.3,1.88-7.92,2.91-1.78.69-1,3.6.8,2.89h0Z"/>
  <path class="cls-3" d="m15,34.06c8.88,37.76,17.24,75.64,25.07,113.63s15.12,76.09,21.87,114.29c6.76,38.2,12.98,76.49,18.67,114.86s10.95,77.7,15.59,116.65c4.59,38.52,8.65,77.1,12.16,115.73.43,4.78.86,9.56,1.28,14.35.17,1.91,3.17,1.93,3,0-3.4-38.83-7.34-77.62-11.82-116.34-4.46-38.47-9.45-76.89-14.98-115.22-5.56-38.58-11.67-77.09-18.32-115.5-6.65-38.41-13.83-76.73-21.56-114.94s-15.99-76.31-24.79-114.28c-1.08-4.68-2.18-9.35-3.28-14.02-.44-1.88-3.34-1.08-2.89.8h0Z"/>
  <path class="cls-3" d="m108.64,667.36c85.68,4.57,171.55,5.64,257.32,3.18,85.34-2.45,170.58-8.38,255.44-17.79,47.47-5.26,94.81-11.61,141.99-19.02,1.9-.3,1.09-3.19-.8-2.89-84.63,13.3-169.81,23.13-255.25,29.45-84.72,6.27-169.68,9.09-254.63,8.46-48.05-.36-96.09-1.83-144.07-4.39-1.93-.1-1.92,2.9,0,3h0Z"/>
</svg>